<svg width="14" height="11" viewBox="0 0 14 11" fill="none" xmlns="http://www.w3.org/2000/svg">
<path d="M10.2989 3.4887C10.2989 3.4887 9.17241 7.02893 9.09196 7.35077C9.09196 7.02893 8.2069 0.672607 8.2069 0.672607C6.27586 0.672607 5.22989 2.04042 4.74713 3.4887C4.74713 3.4887 3.43604 6.24623 3.35558 6.56807C3.27512 6.32669 3.05747 3.56916 3.05747 3.56916C2.89655 1.79904 1.28736 0.672607 0 0.672607L1.6092 10.3278C3.62069 10.3278 4.74713 8.95996 5.31034 7.51169C5.31034 7.51169 6.51724 4.37376 6.5977 4.21284C6.5977 4.37376 7.48276 10.3278 7.48276 10.3278C9.49425 10.3278 10.6207 9.04042 11.1839 7.67261L14 0.672607C11.908 0.672607 10.8621 2.04042 10.2989 3.4887Z" fill="#AEB9E1"/>
</svg>